# xmcd
#
# Track frame offsets: 
#        187
#        31687
#        53842
#        76037
#        100437
#        123515
#        151785
#        173795
#        205707
#        216050
#        259320
#
# Disc length: 3860 seconds
#
# Revision: 1
# Processed by: cddbd v1.5.2PL0 Copyright (c) Steve Scherf et al.
# Submitted via: ExactAudioCopy v1.3
#
DISCID=870f120b
DTITLE=Various Artist - Liquor
DYEAR=1990
DGENRE=Jazz
TTITLE0=Bill Evans Trio - Waltz For Debby
TTITLE1=Bill Evans Trio - When I Fall In Love
TTITLE2=Bill Evans Trio - My Foolish Heart
TTITLE3=Miles Davis - It Never Entered My Mind
TTITLE4=Bill Evans Trio - My Ideal
TTITLE5=John Coltrane - Violets For Your Furs
TTITLE6=Ray Bryant Trio - Golden Earrings
TTITLE7=The Modern Jazz Quartet - DJango
TTITLE8=Wes Montgomery - While We're Young
TTITLE9=The Red Garland Trio - Willow Weep For Me
TTITLE10=Thelonious Monk - 'Round Midnight
EXTD=YEAR: 1990
EXTT0=
EXTT1=
EXTT2=
EXTT3=
EXTT4=
EXTT5=
EXTT6=
EXTT7=
EXTT8=
EXTT9=
EXTT10=
PLAYORDER=
